<svg width="100" height="100" viewBox="0 0 100 100" fill="none" xmlns="http://www.w3.org/2000/svg">
<path d="M25.2793 20.2472L38.7721 15L22.2809 20.2472H25.2793Z" fill="#6633bb"/>
<path d="M78.5008 21.7464L61.26 15L79.2504 18.748L78.5008 21.7464Z" fill="#6633bb"/>
<path d="M31.2761 29.992L38.772 20.2472L29.7769 29.2424L31.2761 29.992Z" fill="#6633bb"/>
<path d="M68.756 29.992L61.26 20.2472L70.2552 29.2424L68.756 29.992Z" fill="#6633bb"/>
<path d="M20.0321 62.2248V15H38.772L22.2809 20.2472H38.772L30.5265 29.2424L38.0224 32.2408L38.772 62.2248L50.016 69.7207L61.26 62.2248V32.2408L70.2552 29.2424L61.26 20.2472H77.7512L61.26 15H80V62.2248C80 70.2205 73.8533 86.062 49.2664 85.4623C24.6796 84.8626 19.5323 69.7207 20.0321 62.2248Z" fill="#6633dd"/>
</svg>
