<svg width="428" height="926" viewBox="0 0 428 926" fill="none" xmlns="http://www.w3.org/2000/svg">
<g clip-path="url(#clip0_302_2)">
<g clip-path="url(#clip1_302_2)">
<path d="M-532 643L-500 645.2C-468 647.3 -404 651.7 -340 642.3C-276 633 -212 610 -148 614C-84 618 -20 649 44 656.7C108 664.3 172 648.7 236 629C300 609.3 364 585.7 428 594.7C492 603.7 556 645.3 620 648C684 650.7 748 614.3 812 589C876 563.7 940 549.3 1004 559.7C1068 570 1132 605 1196 622.8C1260 640.7 1324 641.3 1356 641.7L1388 642V1021H1356C1324 1021 1260 1021 1196 1021C1132 1021 1068 1021 1004 1021C940 1021 876 1021 812 1021C748 1021 684 1021 620 1021C556 1021 492 1021 428 1021C364 1021 300 1021 236 1021C172 1021 108 1021 44 1021C-20 1021 -84 1021 -148 1021C-212 1021 -276 1021 -340 1021C-404 1021 -468 1021 -500 1021H-532V643Z" fill="#28272B"/>
<path d="M-532 691L-500 685.8C-468 680.7 -404 670.3 -340 656.7C-276 643 -212 626 -148 616.2C-84 606.3 -20 603.7 44 609C108 614.3 172 627.7 236 643.5C300 659.3 364 677.7 428 684C492 690.3 556 684.7 620 680.5C684 676.3 748 673.7 812 672.5C876 671.3 940 671.7 1004 673.5C1068 675.3 1132 678.7 1196 697.7C1260 716.7 1324 751.3 1356 768.7L1388 786V1021H1356C1324 1021 1260 1021 1196 1021C1132 1021 1068 1021 1004 1021C940 1021 876 1021 812 1021C748 1021 684 1021 620 1021C556 1021 492 1021 428 1021C364 1021 300 1021 236 1021C172 1021 108 1021 44 1021C-20 1021 -84 1021 -148 1021C-212 1021 -276 1021 -340 1021C-404 1021 -468 1021 -500 1021H-532V691Z" fill="#2E2E32"/>
<path d="M-532 716L-500 716.5C-468 717 -404 718 -340 737.8C-276 757.7 -212 796.3 -148 800.2C-84 804 -20 773 44 748.5C108 724 172 706 236 701.3C300 696.7 364 705.3 428 728.3C492 751.3 556 788.7 620 795.2C684 801.7 748 777.3 812 755.5C876 733.7 940 714.3 1004 710.3C1068 706.3 1132 717.7 1196 717.7C1260 717.7 1324 706.3 1356 700.7L1388 695V1021H1356C1324 1021 1260 1021 1196 1021C1132 1021 1068 1021 1004 1021C940 1021 876 1021 812 1021C748 1021 684 1021 620 1021C556 1021 492 1021 428 1021C364 1021 300 1021 236 1021C172 1021 108 1021 44 1021C-20 1021 -84 1021 -148 1021C-212 1021 -276 1021 -340 1021C-404 1021 -468 1021 -500 1021H-532V716Z" fill="#343539"/>
<path d="M-532 764L-500 774C-468 784 -404 804 -340 815.7C-276 827.3 -212 830.7 -148 840.2C-84 849.7 -20 865.3 44 875.2C108 885 172 889 236 883.2C300 877.3 364 861.7 428 852.5C492 843.3 556 840.7 620 831C684 821.3 748 804.7 812 807.7C876 810.7 940 833.3 1004 831C1068 828.7 1132 801.3 1196 788.7C1260 776 1324 778 1356 779L1388 780V1021H1356C1324 1021 1260 1021 1196 1021C1132 1021 1068 1021 1004 1021C940 1021 876 1021 812 1021C748 1021 684 1021 620 1021C556 1021 492 1021 428 1021C364 1021 300 1021 236 1021C172 1021 108 1021 44 1021C-20 1021 -84 1021 -148 1021C-212 1021 -276 1021 -340 1021C-404 1021 -468 1021 -500 1021H-532V764Z" fill="#3A3C40"/>
<path d="M-532 821L-500 835C-468 849 -404 877 -340 895.5C-276 914 -212 923 -148 924.7C-84 926.3 -20 920.7 44 908.5C108 896.3 172 877.7 236 864C300 850.3 364 841.7 428 846.5C492 851.3 556 869.7 620 883.3C684 897 748 906 812 897.7C876 889.3 940 863.7 1004 860.8C1068 858 1132 878 1196 889C1260 900 1324 902 1356 903L1388 904V1021H1356C1324 1021 1260 1021 1196 1021C1132 1021 1068 1021 1004 1021C940 1021 876 1021 812 1021C748 1021 684 1021 620 1021C556 1021 492 1021 428 1021C364 1021 300 1021 236 1021C172 1021 108 1021 44 1021C-20 1021 -84 1021 -148 1021C-212 1021 -276 1021 -340 1021C-404 1021 -468 1021 -500 1021H-532V821Z" fill="#414347"/>
<path d="M-532 898L-500 896.7C-468 895.3 -404 892.7 -340 908.2C-276 923.7 -212 957.3 -148 972.2C-84 987 -20 983 44 971C108 959 172 939 236 930.5C300 922 364 925 428 922.2C492 919.3 556 910.7 620 913C684 915.3 748 928.7 812 935C876 941.3 940 940.7 1004 944.3C1068 948 1132 956 1196 948C1260 940 1324 916 1356 904L1388 892V1021H1356C1324 1021 1260 1021 1196 1021C1132 1021 1068 1021 1004 1021C940 1021 876 1021 812 1021C748 1021 684 1021 620 1021C556 1021 492 1021 428 1021C364 1021 300 1021 236 1021C172 1021 108 1021 44 1021C-20 1021 -84 1021 -148 1021C-212 1021 -276 1021 -340 1021C-404 1021 -468 1021 -500 1021H-532V898Z" fill="#474A4E"/>
</g>
</g>
<defs>
<clipPath id="clip0_302_2">
<rect width="428" height="926" fill="white"/>
</clipPath>
<clipPath id="clip1_302_2">
<rect width="1920" height="1080" fill="white" transform="translate(-532 -60)"/>
</clipPath>
</defs>
</svg>
