<svg width="1920" height="1080" viewBox="0 0 1920 1080" fill="none" xmlns="http://www.w3.org/2000/svg">
<g clip-path="url(#clip0_101_25)">
<path d="M0 703L32 705.2C64 707.3 128 711.7 192 702.3C256 693 320 670 384 674C448 678 512 709 576 716.7C640 724.3 704 708.7 768 689C832 669.3 896 645.7 960 654.7C1024 663.7 1088 705.3 1152 708C1216 710.7 1280 674.3 1344 649C1408 623.7 1472 609.3 1536 619.7C1600 630 1664 665 1728 682.8C1792 700.7 1856 701.3 1888 701.7L1920 702V1081H1888C1856 1081 1792 1081 1728 1081C1664 1081 1600 1081 1536 1081C1472 1081 1408 1081 1344 1081C1280 1081 1216 1081 1152 1081C1088 1081 1024 1081 960 1081C896 1081 832 1081 768 1081C704 1081 640 1081 576 1081C512 1081 448 1081 384 1081C320 1081 256 1081 192 1081C128 1081 64 1081 32 1081H0V703Z" fill="#28272B"/>
<path d="M0 751L32 745.8C64 740.7 128 730.3 192 716.7C256 703 320 686 384 676.2C448 666.3 512 663.7 576 669C640 674.3 704 687.7 768 703.5C832 719.3 896 737.7 960 744C1024 750.3 1088 744.7 1152 740.5C1216 736.3 1280 733.7 1344 732.5C1408 731.3 1472 731.7 1536 733.5C1600 735.3 1664 738.7 1728 757.7C1792 776.7 1856 811.3 1888 828.7L1920 846V1081H1888C1856 1081 1792 1081 1728 1081C1664 1081 1600 1081 1536 1081C1472 1081 1408 1081 1344 1081C1280 1081 1216 1081 1152 1081C1088 1081 1024 1081 960 1081C896 1081 832 1081 768 1081C704 1081 640 1081 576 1081C512 1081 448 1081 384 1081C320 1081 256 1081 192 1081C128 1081 64 1081 32 1081H0V751Z" fill="#2E2E32"/>
<path d="M0 776L32 776.5C64 777 128 778 192 797.8C256 817.7 320 856.3 384 860.2C448 864 512 833 576 808.5C640 784 704 766 768 761.3C832 756.7 896 765.3 960 788.3C1024 811.3 1088 848.7 1152 855.2C1216 861.7 1280 837.3 1344 815.5C1408 793.7 1472 774.3 1536 770.3C1600 766.3 1664 777.7 1728 777.7C1792 777.7 1856 766.3 1888 760.7L1920 755V1081H1888C1856 1081 1792 1081 1728 1081C1664 1081 1600 1081 1536 1081C1472 1081 1408 1081 1344 1081C1280 1081 1216 1081 1152 1081C1088 1081 1024 1081 960 1081C896 1081 832 1081 768 1081C704 1081 640 1081 576 1081C512 1081 448 1081 384 1081C320 1081 256 1081 192 1081C128 1081 64 1081 32 1081H0V776Z" fill="#343539"/>
<path d="M0 824L32 834C64 844 128 864 192 875.7C256 887.3 320 890.7 384 900.2C448 909.7 512 925.3 576 935.2C640 945 704 949 768 943.2C832 937.3 896 921.7 960 912.5C1024 903.3 1088 900.7 1152 891C1216 881.3 1280 864.7 1344 867.7C1408 870.7 1472 893.3 1536 891C1600 888.7 1664 861.3 1728 848.7C1792 836 1856 838 1888 839L1920 840V1081H1888C1856 1081 1792 1081 1728 1081C1664 1081 1600 1081 1536 1081C1472 1081 1408 1081 1344 1081C1280 1081 1216 1081 1152 1081C1088 1081 1024 1081 960 1081C896 1081 832 1081 768 1081C704 1081 640 1081 576 1081C512 1081 448 1081 384 1081C320 1081 256 1081 192 1081C128 1081 64 1081 32 1081H0V824Z" fill="#3A3C40"/>
<path d="M0 881L32 895C64 909 128 937 192 955.5C256 974 320 983 384 984.7C448 986.3 512 980.7 576 968.5C640 956.3 704 937.7 768 924C832 910.3 896 901.7 960 906.5C1024 911.3 1088 929.7 1152 943.3C1216 957 1280 966 1344 957.7C1408 949.3 1472 923.7 1536 920.8C1600 918 1664 938 1728 949C1792 960 1856 962 1888 963L1920 964V1081H1888C1856 1081 1792 1081 1728 1081C1664 1081 1600 1081 1536 1081C1472 1081 1408 1081 1344 1081C1280 1081 1216 1081 1152 1081C1088 1081 1024 1081 960 1081C896 1081 832 1081 768 1081C704 1081 640 1081 576 1081C512 1081 448 1081 384 1081C320 1081 256 1081 192 1081C128 1081 64 1081 32 1081H0V881Z" fill="#414347"/>
<path d="M0 958L32 956.7C64 955.3 128 952.7 192 968.2C256 983.7 320 1017.3 384 1032.2C448 1047 512 1043 576 1031C640 1019 704 999 768 990.5C832 982 896 985 960 982.2C1024 979.3 1088 970.7 1152 973C1216 975.3 1280 988.7 1344 995C1408 1001.3 1472 1000.7 1536 1004.3C1600 1008 1664 1016 1728 1008C1792 1000 1856 976 1888 964L1920 952V1081H1888C1856 1081 1792 1081 1728 1081C1664 1081 1600 1081 1536 1081C1472 1081 1408 1081 1344 1081C1280 1081 1216 1081 1152 1081C1088 1081 1024 1081 960 1081C896 1081 832 1081 768 1081C704 1081 640 1081 576 1081C512 1081 448 1081 384 1081C320 1081 256 1081 192 1081C128 1081 64 1081 32 1081H0V958Z" fill="#474A4E"/>
</g>
<defs>
<clipPath id="clip0_101_25">
<rect width="1920" height="1080" fill="white"/>
</clipPath>
</defs>
</svg>
